<svg width="30" height="22" viewBox="0 0 30 22" fill="none" xmlns="http://www.w3.org/2000/svg">
<path d="M27.743 6.07966e-06H1.95502C1.60589 0.000535062 1.27122 0.139457 1.02435 0.386328C0.777482 0.633199 0.638529 0.96788 0.638 1.31701V19.79C0.638529 20.1378 0.776955 20.4712 1.02289 20.7171C1.26882 20.9631 1.60221 21.1015 1.95001 21.102H27.75C28.0986 21.1025 28.4331 20.9646 28.6801 20.7186C28.927 20.4726 29.0662 20.1386 29.067 19.79V1.31601C29.0665 1.14266 29.0318 0.97112 28.965 0.811171C28.8981 0.651222 28.8005 0.505997 28.6776 0.383795C28.5546 0.261593 28.4088 0.164802 28.2485 0.0989517C28.0881 0.0331011 27.9163 -0.000520004 27.743 6.07966e-06ZM28.171 16.541H22.182V4.56H28.171V16.541ZM1.53101 4.56H7.521V16.539H1.53101V4.56ZM21.29 16.539H8.414V4.56H21.29V16.539ZM25.11 3.66701H22.945V0.891005H25.11V3.66701ZM18.995 3.66701H16.826V0.891005H19L18.995 3.66701ZM12.876 3.66701H10.707V0.891005H12.876V3.66701ZM6.75598 3.66701H4.58698V0.891005H6.75598V3.66701ZM4.58698 17.432H6.75598V20.208H4.58698V17.432ZM10.706 17.432H12.875V20.208H10.706V17.432ZM16.825 17.432H19V20.208H16.831L16.825 17.432ZM22.944 17.432H25.109V20.208H22.944V17.432Z" fill="#BFBFBF"/>
<path d="M14.85 5.94897C13.9402 5.94897 13.0508 6.21876 12.2944 6.72421C11.5379 7.22967 10.9483 7.94809 10.6002 8.78863C10.252 9.62917 10.1609 10.5541 10.3384 11.4464C10.5159 12.3387 10.954 13.1583 11.5973 13.8017C12.2406 14.445 13.0603 14.8831 13.9526 15.0606C14.8449 15.2381 15.7698 15.147 16.6104 14.7988C17.4509 14.4507 18.1693 13.8611 18.6748 13.1046C19.1802 12.3481 19.45 11.4588 19.45 10.549C19.45 9.32898 18.9653 8.15895 18.1027 7.29628C17.24 6.43361 16.07 5.94897 14.85 5.94897V5.94897ZM16.287 11.399L14.68 12.363C14.5165 12.4602 14.3303 12.5124 14.1401 12.5144C13.9499 12.5163 13.7625 12.4679 13.5971 12.3741C13.4317 12.2803 13.294 12.1443 13.1981 11.9801C13.1022 11.8159 13.0514 11.6292 13.051 11.439V9.51297C13.0508 9.32253 13.1012 9.13546 13.197 8.97086C13.2927 8.80626 13.4305 8.67003 13.5961 8.57607C13.7618 8.48212 13.9494 8.43381 14.1398 8.43607C14.3302 8.43834 14.5166 8.4911 14.68 8.58897L16.287 9.55297C16.4467 9.64821 16.579 9.78329 16.6708 9.945C16.7627 10.1067 16.811 10.2895 16.811 10.4755C16.811 10.6614 16.7627 10.8442 16.6708 11.006C16.579 11.1677 16.4467 11.3027 16.287 11.398V11.399Z" fill="#BFBFBF"/>
</svg>
