<svg xmlns="http://www.w3.org/2000/svg" width="24.405" height="27.19" viewBox="0 0 24.405 27.19">
  <g id="Group_87" data-name="Group 87" transform="translate(-679.163 -663.465)">
    <path id="Path_494" data-name="Path 494" d="M713.293,695.009a1.835,1.835,0,0,0-2.6,2.6l2.52,2.524a1.838,1.838,0,0,0,2.6-2.6Zm.5,4.48a.974.974,0,1,1,1.377,0A.97.97,0,0,1,713.794,699.489Z" transform="translate(-19.336 -19.342)" fill="#bfbfbf"/>
    <path id="Path_495" data-name="Path 495" d="M702.952,686.886l-1.322-1.445.527-.527a1.154,1.154,0,0,0,0-1.625l-.918-.918.2-.2a1.144,1.144,0,0,0,.034-1.588l-8.686-9.469a.891.891,0,0,0-.023-1.234l-1.264-1.264a.916.916,0,0,0-.986-.181,5.6,5.6,0,0,0-.82-2.3,1.313,1.313,0,0,0-.218-1.557l0,0s0,0-.008-.008a1.347,1.347,0,0,0-1.557-.218,5.7,5.7,0,0,0-7.868,7.857,1.319,1.319,0,0,0,1.791,1.79,5.57,5.57,0,0,0,2.287.828.9.9,0,0,0,.188.982l1.264,1.264a.88.88,0,0,0,1.234.023l9.457,8.7a1.141,1.141,0,0,0,1.587-.034l.2-.2.918.918a1.148,1.148,0,0,0,1.621,0l.5-.5,0,0,1.3,1.42a1.476,1.476,0,0,1-2.132,2.04l-.659-.659a2.227,2.227,0,0,0-3.151,0l-.677.677a.376.376,0,1,0,.532.532l.677-.677a1.511,1.511,0,0,1,2.087,0l.659.659a2.228,2.228,0,1,0,3.219-3.08Zm-5.632-1.664a.4.4,0,0,1-.549.015l-9.431-8.679,4.913-4.913,8.667,9.442a.393.393,0,0,1-.011.545Zm-10.014-20.359-6.741,6.741a4.945,4.945,0,0,1,6.741-6.741Zm1.866,1.866a4.839,4.839,0,0,1,.639,2.314l-5.075,5.075a4.883,4.883,0,0,1-2.31-.643Z" fill="#bfbfbf"/>
  </g>
</svg>
