<svg xmlns="http://www.w3.org/2000/svg" width="30.183" height="30.071" viewBox="0 0 30.183 30.071">
  <g id="Group_10" data-name="Group 10" transform="translate(-432.949 -52.172)">
    <path id="Path_71" data-name="Path 71" d="M461.244,53.186a3.686,3.686,0,0,0-4.152-.663,8.56,8.56,0,0,1-6.309,0,3.7,3.7,0,0,0-4.156.663c-1.98,1.882-2.017,5.595-1.775,8.088a8.546,8.546,0,0,1-5.87-.159,3.707,3.707,0,0,0-4.156.658c-3.124,2.975-1.41,10.526-1.392,10.6.234,1.009,2.466,9.868,8.7,9.868,2.648,0,4.983-1.677,6.757-4.847a21.015,21.015,0,0,0,1.84-4.628,6.2,6.2,0,0,0,3.2.883c4.71,0,7.556-5.26,8.692-9.817h0l0-.012h0a.32.32,0,0,1,.015-.061C462.921,62.47,464.13,55.921,461.244,53.186ZM448.08,76.943c-1.621,2.9-3.619,4.366-5.94,4.366-5.613,0-7.71-8.77-7.794-9.144-.019-.075-1.574-7.145,1.121-9.708a2.8,2.8,0,0,1,3.166-.477,9.5,9.5,0,0,0,6.328.238c.807-.219,2.366-1.167,3.839.233,1.55,1.471,1.686,4.4,1.55,6.538A18.015,18.015,0,0,1,448.08,76.943ZM450,59.295a2.129,2.129,0,0,0-2.036,1.5.2.2,0,0,1-.07.093,2.041,2.041,0,0,0-.243-.056,2.173,2.173,0,0,1-.131-.78,2.484,2.484,0,1,1,4.969,0,2.457,2.457,0,0,1-.112.738.176.176,0,0,1-.336,0A2.126,2.126,0,0,0,450,59.295Zm8.434,10.839a.177.177,0,0,1-.336,0,4.377,4.377,0,0,0-6.771-2.153,14.01,14.01,0,0,0-.28-3.054,4.679,4.679,0,0,1,2.891-.995,4.746,4.746,0,0,1,4.5,6.2Zm1.915-9.345a.178.178,0,0,1-.336,0,2.136,2.136,0,0,0-4.077,0,.175.175,0,0,1-.336,0,2.611,2.611,0,0,1-.107-.738,2.482,2.482,0,1,1,4.964,0,2.609,2.609,0,0,1-.107.738Z" fill="#bfbfbf"/>
    <path id="Path_72" data-name="Path 72" d="M443.41,85.351a.176.176,0,0,0,.336,0,2.456,2.456,0,0,0,.112-.737,2.484,2.484,0,0,0-4.969,0,2.457,2.457,0,0,0,.112.737.172.172,0,0,0,.332,0,2.136,2.136,0,0,1,4.077,0Z" transform="translate(-3.166 -15.965)" fill="#bfbfbf"/>
    <path id="Path_73" data-name="Path 73" d="M451.548,95.754a.181.181,0,0,0-.168.121,4.378,4.378,0,0,1-8.322,0,.177.177,0,0,0-.336,0,4.731,4.731,0,1,0,8.994,0,.181.181,0,0,0-.168-.121Z" transform="translate(-5.085 -23.229)" fill="#bfbfbf"/>
    <path id="Path_74" data-name="Path 74" d="M458.233,82.134a2.483,2.483,0,0,0-2.274,2.475,2.609,2.609,0,0,0,.107.737.176.176,0,0,0,.336,0,2.136,2.136,0,0,1,4.077,0,.178.178,0,0,0,.336,0,2.644,2.644,0,0,0,.107-.737,2.485,2.485,0,0,0-2.69-2.475Z" transform="translate(-12.264 -15.965)" fill="#bfbfbf"/>
  </g>
</svg>
