<svg xmlns="http://www.w3.org/2000/svg" width="27.334" height="27.374" viewBox="0 0 27.334 27.374">
  <g id="Group_101" data-name="Group 101" transform="translate(-801.741 -417.564)">
    <path id="Path_576" data-name="Path 576" d="M828.31,450.686c-.037-.064.448.366-7.654-6.522a1.967,1.967,0,0,0-3.022.6l-1.387,2.687a1.189,1.189,0,0,0,.289,1.442,1.174,1.174,0,0,0,1.828-.386l.884-1.844a.057.057,0,0,1,.038-.025h.008a.042.042,0,0,1,.029.008l3.709,3.869H807.784l3.705-3.864a.051.051,0,0,1,.042-.013.057.057,0,0,1,.038.025l.884,1.844a1.183,1.183,0,1,0,2.117-1.056l-1.387-2.687a1.967,1.967,0,0,0-3.022-.6l-7.586,6.447a.405.405,0,0,0-.071.079,1.454,1.454,0,0,0-.754,1.425l.679,6.685a1.443,1.443,0,0,0,1.446,1.316h6.811a2.3,2.3,0,0,0,2.129-1.417l1.241-2.98a1.465,1.465,0,0,1,2.708,0L818,458.7a2.305,2.305,0,0,0,2.129,1.417h6.811a1.443,1.443,0,0,0,1.446-1.312l.679-6.689A1.461,1.461,0,0,0,828.31,450.686Zm-1.366,8.592h-6.811a1.457,1.457,0,0,1-1.354-.9l-1.241-2.98a2.305,2.305,0,0,0-4.258,0l-1.236,2.98a1.467,1.467,0,0,1-1.358.9h-6.811a.612.612,0,0,1-.612-.557l-.679-6.69a.62.62,0,0,1,.612-.683h24.427a.619.619,0,0,1,.612.683l-.679,6.69A.611.611,0,0,1,826.943,459.278Z" transform="translate(0 -15.178)" fill="#bfbfbf"/>
    <path id="Path_577" data-name="Path 577" d="M814.7,464.634h-6.878a1.021,1.021,0,0,0-1.01,1.119l.369,3.651a1.014,1.014,0,0,0,1.01.914h4.992a1.006,1.006,0,0,0,.935-.625l1.521-3.651a1.018,1.018,0,0,0-.939-1.408Z" transform="translate(-2.943 -27.341)" fill="#bfbfbf"/>
    <path id="Path_578" data-name="Path 578" d="M848.528,464.634H841.65a1.018,1.018,0,0,0-.939,1.408l1.521,3.651a1.006,1.006,0,0,0,.935.625h4.992a1.014,1.014,0,0,0,1.01-.914l.369-3.651a1.017,1.017,0,0,0-1.01-1.119Z" transform="translate(-22.591 -27.341)" fill="#bfbfbf"/>
    <path id="Path_579" data-name="Path 579" d="M829.323,417.564h-9.791A2.531,2.531,0,0,0,817,420.092v4.178a2.531,2.531,0,0,0,2.532,2.527l2.963.013,1.22,1.773a.867.867,0,0,0,1.425,0l1.241-1.786h2.942a2.531,2.531,0,0,0,2.532-2.528v-4.178A2.531,2.531,0,0,0,829.323,417.564Zm1.693,6.706a1.693,1.693,0,0,1-1.693,1.689H826.38a.869.869,0,0,0-.713.377l-1.228,1.789-.034-.021-1.22-1.769a.869.869,0,0,0-.713-.377h-2.942a1.693,1.693,0,0,1-1.693-1.689v-4.179a1.693,1.693,0,0,1,1.693-1.689h9.791a1.693,1.693,0,0,1,1.693,1.69Z" transform="translate(-8.863)" fill="#bfbfbf"/>
    <path id="Path_580" data-name="Path 580" d="M828.364,424.843a1.394,1.394,0,0,0,.3-.247,1.042,1.042,0,0,0,.222-.7,1,1,0,0,0-.4-.847,1.8,1.8,0,0,0-1.086-.293,2.541,2.541,0,0,0-1.19.306.316.316,0,0,0-.172.289.3.3,0,0,0,.1.226.314.314,0,0,0,.369.059,1.986,1.986,0,0,1,.851-.18,1.071,1.071,0,0,1,.616.143.4.4,0,0,1,.189.352.461.461,0,0,1-.256.427,1.67,1.67,0,0,1-.826.163h-.034a.346.346,0,0,0,0,.692h.092c1.165,0,1.165.465,1.165.62a.407.407,0,0,1-.247.4,1.715,1.715,0,0,1-.713.134,2.361,2.361,0,0,1-.876-.159.339.339,0,0,0-.39.075.346.346,0,0,0-.092.243.342.342,0,0,0,.059.2.4.4,0,0,0,.155.117,3.319,3.319,0,0,0,1.241.239,1.962,1.962,0,0,0,1.136-.31,1.048,1.048,0,0,0,.461-.905,1.029,1.029,0,0,0-.289-.788,1.463,1.463,0,0,0-.377-.256Z" transform="translate(-14.079 -3.017)" fill="#bfbfbf"/>
    <path id="Path_581" data-name="Path 581" d="M836.029,427.128h1.157a2.158,2.158,0,0,0,1.169-.306,1.96,1.96,0,0,0,.725-.792,2.238,2.238,0,0,0,0-2.029,1.96,1.96,0,0,0-.725-.792,2.159,2.159,0,0,0-1.169-.306h-1.157a.342.342,0,0,0-.256.109.354.354,0,0,0-.1.26v3.491a.354.354,0,0,0,.1.26A.361.361,0,0,0,836.029,427.128Zm.373-.7V423.6h.721a1.6,1.6,0,0,1,.78.179,1.263,1.263,0,0,1,.511.495,1.6,1.6,0,0,1,0,1.475,1.29,1.29,0,0,1-.511.495,1.6,1.6,0,0,1-.78.18Z" transform="translate(-19.707 -3.101)" fill="#bfbfbf"/>
  </g>
</svg>
