<svg xmlns="http://www.w3.org/2000/svg" width="30.63" height="27.374" viewBox="0 0 30.63 27.374">
  <g id="Group_59" data-name="Group 59" transform="translate(-428.258 -296.244)">
    <path id="Path_326" data-name="Path 326" d="M458.158,296.244H444.829a2.745,2.745,0,0,0-2.74,2.745v21.885a2.745,2.745,0,0,0,2.74,2.745h13.329a2.747,2.747,0,0,0,2.745-2.745V298.989A2.747,2.747,0,0,0,458.158,296.244Zm1.887,24.629a1.887,1.887,0,0,1-1.887,1.887H444.829a1.887,1.887,0,0,1-1.883-1.887V298.989a1.887,1.887,0,0,1,1.883-1.887h13.329a1.89,1.89,0,0,1,1.887,1.887Z" transform="translate(-7.9 0)" fill="#bfbfbf"/>
    <path id="Path_327" data-name="Path 327" d="M458.57,309.931a4.093,4.093,0,1,0-4.091-4.092,4.094,4.094,0,0,0,4.091,4.092Zm0-6.291a2.2,2.2,0,1,1-2.2,2.2A2.2,2.2,0,0,1,458.57,303.64Z" transform="translate(-14.976 -3.141)" fill="#bfbfbf"/>
    <path id="Path_328" data-name="Path 328" d="M462.854,311a.877.877,0,1,0-.875-.875A.877.877,0,0,0,462.854,311Z" transform="translate(-19.26 -7.425)" fill="#bfbfbf"/>
    <path id="Path_329" data-name="Path 329" d="M455.72,325.5a6.233,6.233,0,1,0,6.236,6.231,6.233,6.233,0,0,0-6.236-6.231Zm0,10.108a3.875,3.875,0,1,1,3.877-3.876,3.875,3.875,0,0,1-3.877,3.876Z" transform="translate(-12.126 -16.709)" fill="#bfbfbf"/>
    <path id="Path_330" data-name="Path 330" d="M461.34,335.334a2.016,2.016,0,1,0,2.02,2.016A2.016,2.016,0,0,0,461.34,335.334Z" transform="translate(-17.746 -22.326)" fill="#bfbfbf"/>
    <path id="Path_331" data-name="Path 331" d="M477.138,300.794a1.179,1.179,0,1,0,1.179,1.175,1.179,1.179,0,0,0-1.179-1.175Z" transform="translate(-27.244 -2.599)" fill="#bfbfbf"/>
    <path id="Path_332" data-name="Path 332" d="M447.764,303.153a1.179,1.179,0,1,0-1.175-1.184A1.179,1.179,0,0,0,447.764,303.153Z" transform="translate(-10.47 -2.599)" fill="#bfbfbf"/>
    <circle id="Ellipse_1" data-name="Ellipse 1" cx="1.179" cy="1.179" r="1.179" transform="translate(448.715 319.33)" fill="#bfbfbf"/>
    <path id="Path_333" data-name="Path 333" d="M447.764,350.074a1.178,1.178,0,1,0,.837.343A1.179,1.179,0,0,0,447.764,350.074Z" transform="translate(-10.47 -30.744)" fill="#bfbfbf"/>
    <path id="Path_334" data-name="Path 334" d="M495.191,319.508a.429.429,0,0,0-.606.607,4.292,4.292,0,0,1,0,6.065.429.429,0,1,0,.606.606A5.149,5.149,0,0,0,495.191,319.508Z" transform="translate(-37.81 -13.215)" fill="#bfbfbf"/>
    <path id="Path_335" data-name="Path 335" d="M492.362,322.333a.429.429,0,1,0-.606.606,2.577,2.577,0,0,1,0,3.639.429.429,0,1,0,.606.606A3.431,3.431,0,0,0,492.362,322.333Z" transform="translate(-36.194 -14.828)" fill="#bfbfbf"/>
    <path id="Path_336" data-name="Path 336" d="M489.534,325.165a.429.429,0,1,0-.606.606.858.858,0,0,1,0,1.213.429.429,0,1,0,.606.606A1.715,1.715,0,0,0,489.534,325.165Z" transform="translate(-34.579 -16.446)" fill="#bfbfbf"/>
    <path id="Path_337" data-name="Path 337" d="M430.37,320.115a.429.429,0,0,0-.606-.607,5.149,5.149,0,0,0,0,7.278.429.429,0,1,0,.606-.606A4.292,4.292,0,0,1,430.37,320.115Z" transform="translate(0 -13.215)" fill="#bfbfbf"/>
    <path id="Path_338" data-name="Path 338" d="M433.87,322.942a.429.429,0,1,0-.606-.608,3.435,3.435,0,0,0,0,4.852.429.429,0,1,0,.607-.606A2.577,2.577,0,0,1,433.87,322.942Z" transform="translate(-2.286 -14.829)" fill="#bfbfbf"/>
    <path id="Path_339" data-name="Path 339" d="M437.364,325.165a.429.429,0,0,0-.606,0,1.715,1.715,0,0,0,0,2.426.429.429,0,1,0,.606-.606.858.858,0,0,1,0-1.213A.429.429,0,0,0,437.364,325.165Z" transform="translate(-4.568 -16.446)" fill="#bfbfbf"/>
  </g>
</svg>
