<svg xmlns="http://www.w3.org/2000/svg" width="17.944" height="17.944" viewBox="0 0 17.944 17.944">
  <g id="Iconly_Light_Play" data-name="Iconly/Light/Play" transform="translate(0.75 0.75)">
    <g id="Play">
      <path id="Stroke_1" data-name="Stroke 1" d="M8.222,0A8.222,8.222,0,1,1,0,8.222,8.222,8.222,0,0,1,8.222,0Z" fill="none" stroke="#fff" stroke-linecap="round" stroke-linejoin="round" stroke-width="1.5"/>
      <path id="Stroke_3" data-name="Stroke 3" d="M4.243,3.264A12.264,12.264,0,0,1,1.177,5.355a3.275,3.275,0,0,1-.546.176.414.414,0,0,1-.377-.222,4.308,4.308,0,0,1-.136-.567A13.653,13.653,0,0,1,0,2.766,12.846,12.846,0,0,1,.13.723C.153.595.22.3.24.252A.409.409,0,0,1,.426.05.406.406,0,0,1,.631,0,2.87,2.87,0,0,1,1.1.147a12.154,12.154,0,0,1,3.13,2.111c.056.06.21.221.235.254a.412.412,0,0,1,.009.495C4.452,3.044,4.294,3.209,4.243,3.264Z" transform="translate(6.487 5.342)" fill="none" stroke="#fff" stroke-linecap="round" stroke-linejoin="round" stroke-width="1.5"/>
    </g>
  </g>
</svg>
