<svg id="Group_9" data-name="Group 9" xmlns="http://www.w3.org/2000/svg" width="16" height="12" viewBox="0 0 16 12">
  <path id="Fill_1" data-name="Fill 1" d="M20,10" transform="translate(-20 -6)" fill="#bababa" opacity="0.4"/>
  <path id="Fill_4" data-name="Fill 4" d="M10.413,5.957a1.715,1.715,0,0,1-.355,1.056,5.743,5.743,0,0,1-.414.463l-.089.087a22.54,22.54,0,0,1-5.9,3.933,5.169,5.169,0,0,1-1.376.4H2.219a1.866,1.866,0,0,1-1.642-.982A8.124,8.124,0,0,1,.222,9.6,26.222,26.222,0,0,1,0,5.943,22.629,22.629,0,0,1,.251,2.169,9.492,9.492,0,0,1,.518,1.113a1.9,1.9,0,0,1,.828-.9A2.115,2.115,0,0,1,2.278,0,5.122,5.122,0,0,1,3.505.333,22.646,22.646,0,0,1,9.54,4.323c.207.2.429.45.488.506a1.8,1.8,0,0,1,.385,1.128" transform="translate(5.587)" fill="#bababa"/>
  <rect id="Rectangle_19" data-name="Rectangle 19" width="2" height="12" rx="1" transform="translate(2.223)" fill="#bababa"/>
</svg>
