<svg xmlns="http://www.w3.org/2000/svg" width="23.909" height="28.54" viewBox="0 0 23.909 28.54">
  <g id="Group_84" data-name="Group 84" transform="translate(-560.74 -663.034)">
    <path id="Path_480" data-name="Path 480" d="M583.332,663.034H562.061a1.323,1.323,0,0,0-1.321,1.321v13.293a1.315,1.315,0,0,0,1.316,1.312h6.2l1.6,2.093-1.7,2.967a3.772,3.772,0,1,0,3.191,1.758l1.066-1.388,1.058,1.388a3.777,3.777,0,1,0,3.2-1.758l-1.7-2.967,1.6-2.093h6.756a1.314,1.314,0,0,0,1.312-1.312V664.355A1.32,1.32,0,0,0,583.332,663.034Zm-12.557,22.035a3.615,3.615,0,0,0-.736-.553,3.841,3.841,0,0,0-.915-.375c2.235-3.917,9.048-15.841,9.023-15.8a11.319,11.319,0,0,1-1.977,9.683Zm4.021-.553a3.8,3.8,0,0,0-.736.553l-1.08-1.41,1.41-1.839,1.321,2.32A3.836,3.836,0,0,0,574.8,684.516ZM561.632,667h5.221V675h-5.221Zm7.675,8.9h1.664v2.173h-1.664ZM567.745,675V667h9.9v.62c-.319.226-.074.018-4.32,7.385Zm16.011,0h-4.984a12.256,12.256,0,0,0,.245-6.859.873.873,0,0,0-.482-.6V667h5.221Zm-2.557-8.9h-1.664v-2.178H581.2Zm-5.114,0h-1.664v-2.178h1.664Zm-5.114,0h-1.664v-2.178h1.664Zm-5.118,0h-1.664v-2.178h1.664Zm-1.664,9.79h1.664v2.173h-1.664Zm15.346,0H581.2v2.173h-1.664Zm-9.4,13.03a2.271,2.271,0,1,1,.223-1.728,2.276,2.276,0,0,1-.223,1.728Zm8.51-2.258a2.272,2.272,0,1,1-1.377-1.069,2.276,2.276,0,0,1,1.377,1.069Z" fill="#18c96a"/>
    <path id="Path_481" data-name="Path 481" d="M586.4,700.7a.733.733,0,1,0,.522.214A.736.736,0,0,0,586.4,700.7Z" transform="translate(-13.799 -20.858)" fill="#18c96a"/>
  </g>
</svg>
