<svg xmlns="http://www.w3.org/2000/svg" width="27.575" height="28.19" viewBox="0 0 27.575 28.19">
  <g id="Group_138" data-name="Group 138" transform="translate(-679.429 -784.555)">
    <path id="Path_796" data-name="Path 796" d="M689.736,814.036h2.727a.436.436,0,1,0,0-.872h-2.727a.436.436,0,0,0,0,.872Z" transform="translate(-5.565 -16.129)" fill="#bfbfbf"/>
    <path id="Path_797" data-name="Path 797" d="M711.965,813.164H700.636a.436.436,0,1,0,0,.872h11.329a.436.436,0,1,0,0-.872Z" transform="translate(-11.71 -16.129)" fill="#bfbfbf"/>
    <path id="Path_798" data-name="Path 798" d="M689.736,818.906H700.4a.436.436,0,0,0,0-.872H689.736a.436.436,0,0,0,0,.872Z" transform="translate(-5.565 -18.874)" fill="#bfbfbf"/>
    <path id="Path_799" data-name="Path 799" d="M722.417,818.034h-3.241a.436.436,0,1,0,0,.872h3.241a.436.436,0,0,0,0-.872Z" transform="translate(-22.162 -18.874)" fill="#bfbfbf"/>
    <path id="Path_800" data-name="Path 800" d="M689.736,823.773h6.517a.436.436,0,0,0,0-.872h-6.517a.436.436,0,0,0,0,.872Z" transform="translate(-5.565 -21.618)" fill="#bfbfbf"/>
    <path id="Path_801" data-name="Path 801" d="M717.1,822.9h-7.359a.436.436,0,0,0,0,.872H717.1a.436.436,0,0,0,0-.872Z" transform="translate(-16.84 -21.618)" fill="#bfbfbf"/>
    <path id="Path_802" data-name="Path 802" d="M689.736,828.646h3.516a.436.436,0,0,0,0-.872h-3.516a.436.436,0,0,0,0,.872Z" transform="translate(-5.565 -24.365)" fill="#bfbfbf"/>
    <path id="Path_803" data-name="Path 803" d="M706.135,827.774h-4.179a.436.436,0,0,0,0,.872h4.179a.436.436,0,1,0,0-.872Z" transform="translate(-12.454 -24.365)" fill="#bfbfbf"/>
    <path id="Path_804" data-name="Path 804" d="M696.851,832.644h-7.115a.436.436,0,0,0,0,.872h7.115a.436.436,0,0,0,0-.872Z" transform="translate(-5.565 -27.111)" fill="#bfbfbf"/>
    <path id="Path_805" data-name="Path 805" d="M683.308,795.85a.458.458,0,1,0-.458-.458A.458.458,0,0,0,683.308,795.85Z" transform="translate(-1.929 -5.851)" fill="#bfbfbf"/>
    <path id="Path_806" data-name="Path 806" d="M682.887,803.55a.458.458,0,1,0-.458-.458A.458.458,0,0,0,682.887,803.55Z" transform="translate(-1.691 -10.192)" fill="#bfbfbf"/>
    <circle id="Ellipse_8" data-name="Ellipse 8" cx="0.493" cy="0.493" r="0.493" transform="translate(683.399 792.978)" fill="#bfbfbf"/>
    <path id="Path_807" data-name="Path 807" d="M705.25,803.387H703.6v-7.953a1.213,1.213,0,0,0,.824-1.152v-2.4a.436.436,0,0,0-.436-.436h-18.13s0-.009-.009-.017l17.881-3.028a.439.439,0,0,0,.358-.5l-.353-2.076a1.518,1.518,0,0,0-1.749-1.243l-19.543,3.312h0a1.028,1.028,0,0,0-.236-.027h-1.592a1.178,1.178,0,0,0-1.178,1.178v5.283a1.186,1.186,0,0,0,1.178,1.178h.327v10.276a3.037,3.037,0,0,0,3.032,3.036h12.188v.314a1.758,1.758,0,0,0,1.374,1.71v1.082a.824.824,0,0,0,1.3.672l2.378-1.71h4.039A1.754,1.754,0,0,0,707,809.126v-3.983A1.758,1.758,0,0,0,705.25,803.387Zm-4.153,2.33a.267.267,0,0,1-.2.079.3.3,0,0,1-.122-.026,2.312,2.312,0,0,0-.427-.174,1.747,1.747,0,0,0-.476-.057,1.413,1.413,0,0,0-.715.17,1.109,1.109,0,0,0-.441.467,1.658,1.658,0,0,0,0,1.37,1.1,1.1,0,0,0,.336.4c.035.026.07.048.1.07a1.413,1.413,0,0,0,.715.174,1.723,1.723,0,0,0,.476-.061,2.048,2.048,0,0,0,.427-.174.292.292,0,0,1,.122-.026.281.281,0,0,1,.2.074.275.275,0,0,1,.044.314.246.246,0,0,1-.118.122,2.774,2.774,0,0,1-.554.24,2.243,2.243,0,0,1-.641.083,1.948,1.948,0,0,1-.947-.227,1.582,1.582,0,0,1-.227-.153,1.619,1.619,0,0,1-.388-.436.765.765,0,0,1-.048-.078,2.218,2.218,0,0,1,0-2.007,1.645,1.645,0,0,1,.663-.663,1.951,1.951,0,0,1,.947-.231,2.221,2.221,0,0,1,.641.083,2.916,2.916,0,0,1,.558.24.278.278,0,0,1,.144.253.262.262,0,0,1-.074.179Zm-3.184-2.33a1.761,1.761,0,0,0-1.758,1.758v2.8H683.966a2.162,2.162,0,0,1-2.159-2.164V795.5h20.918v7.883Zm4.96-17.423.279,1.645-1.88.318.563-2.438.3-.053a.647.647,0,0,1,.742.528Zm-3.137-.122-.567,2.443-2.1.353.567-2.443ZM694.972,789l-2.1.353.567-2.443,2.1-.354Zm-4.2.711-2.1.353.563-2.443,2.1-.353Zm-4.2.711-1.3.223-.62-.668.38-1.645,2.1-.353Zm16.974,3.865a.345.345,0,0,1-.345.345h-1.562l.96-2.312h.947Zm-4.035.345h-2.129l.955-2.312h2.133Zm-4.262,0h-2.129l.96-2.312h2.129Zm-4.253,0h-2.129l.955-2.312h2.133Zm-4.262,0h-.872a1.169,1.169,0,0,0,.039-.305v-2.007H687.7Zm-6.435-.305v-5.283a.305.305,0,0,1,.305-.305H682.2a.323.323,0,0,1,.222.1c.174.188,2.7,2.92,2.526,2.735a.305.305,0,0,1,.083.209v2.548a.309.309,0,0,1-.305.305c-3.777,0-4.122.01-4.166,0a.305.305,0,0,1-.257-.3Zm22.911,11.386c-.017.013-.035.022-.052.035a1.078,1.078,0,0,0-.384.432,1.519,1.519,0,0,0-.148.685,1.618,1.618,0,0,0,.052.419,1.072,1.072,0,0,0,.1.266.828.828,0,0,0,.113.179.98.98,0,0,0,.323.288,1.414,1.414,0,0,0,.716.174,1.73,1.73,0,0,0,.48-.061,2.262,2.262,0,0,0,.427-.174.278.278,0,0,1,.122-.026.262.262,0,0,1,.192.074.251.251,0,0,1,.078.183.273.273,0,0,1-.148.253,2.7,2.7,0,0,1-.558.24,2.209,2.209,0,0,1-.637.083,1.947,1.947,0,0,1-.947-.227,1.626,1.626,0,0,1-.471-.388,1.6,1.6,0,0,1-.2-.279.8.8,0,0,1-.044-.087,1.725,1.725,0,0,1-.148-.454,1.977,1.977,0,0,1-.048-.462,2.056,2.056,0,0,1,.24-1,1.651,1.651,0,0,1,.454-.523,1.392,1.392,0,0,1,.214-.14,1.807,1.807,0,0,1,.222-.1,2.006,2.006,0,0,1,.724-.126,2.209,2.209,0,0,1,.637.083,2.694,2.694,0,0,1,.558.24.274.274,0,0,1,.148.253.262.262,0,0,1-.074.179.266.266,0,0,1-.2.079.281.281,0,0,1-.122-.026,2.6,2.6,0,0,0-.427-.174,1.76,1.76,0,0,0-.48-.057,1.355,1.355,0,0,0-.331.035A1.088,1.088,0,0,0,703.213,805.708Z" transform="translate(0 0)" fill="#bfbfbf"/>
  </g>
</svg>
