<svg id="Group_8" data-name="Group 8" xmlns="http://www.w3.org/2000/svg" width="16" height="12" viewBox="0 0 16 12">
  <path id="Fill_1" data-name="Fill 1" d="M20,10" transform="translate(-4 -6)" fill="#bababa" opacity="0.4"/>
  <path id="Fill_4" data-name="Fill 4" d="M0,5.957A1.715,1.715,0,0,0,.355,7.013a5.743,5.743,0,0,0,.414.463l.089.087a22.54,22.54,0,0,0,5.9,3.933,5.169,5.169,0,0,0,1.376.4h.059a1.866,1.866,0,0,0,1.642-.982A8.124,8.124,0,0,0,10.191,9.6a26.222,26.222,0,0,0,.222-3.66,22.629,22.629,0,0,0-.251-3.774,9.492,9.492,0,0,0-.266-1.056,1.9,1.9,0,0,0-.828-.9A2.115,2.115,0,0,0,8.135,0,5.122,5.122,0,0,0,6.907.333,22.646,22.646,0,0,0,.873,4.323c-.207.2-.429.45-.488.506A1.8,1.8,0,0,0,0,5.957" fill="#bababa"/>
  <rect id="Rectangle_19" data-name="Rectangle 19" width="2" height="12" rx="1" transform="translate(12)" fill="#bababa"/>
</svg>
